<?xml version="1.0" encoding="UTF-8" standalone="no"?>
<!DOCTYPE svg PUBLIC "-//W3C//DTD SVG 1.1//EN"
 "http://www.w3.org/Graphics/SVG/1.1/DTD/svg11.dtd">
<!-- Generated by graphviz version 2.38.0 (20140413.2041)
 -->
<!-- Title: models_diagram Pages: 1 -->
<svg width="477pt" height="230pt"
 viewBox="0.00 0.00 477.34 230.00" xmlns="http://www.w3.org/2000/svg" xmlns:xlink="http://www.w3.org/1999/xlink">
<g id="graph0" class="graph" transform="scale(1 1) rotate(0) translate(4 226)">
<title>models_diagram</title>
<polygon fill="none" stroke="none" points="-4,4 -4,-226 473.343,-226 473.343,4 -4,4"/>
<!-- _diagram_info -->
<g id="node1" class="node"><title>_diagram_info</title>
<text text-anchor="start" x="8" y="-207.6" font-family="Times,serif" font-size="13.00">Models diagram</text>
<text text-anchor="start" x="8" y="-193.6" font-family="Times,serif" font-size="13.00">Date: Nov 21 2016 &#45; 19:31</text>
<text text-anchor="start" x="8" y="-179.6" font-family="Times,serif" font-size="13.00">Migration version: 20161121222550</text>
<text text-anchor="start" x="8" y="-165.6" font-family="Times,serif" font-size="13.00">Generated by RailRoady 1.5.2</text>
<text text-anchor="start" x="8" y="-151.6" font-family="Times,serif" font-size="13.00">http://railroady.prestonlee.com</text>
</g>
<!-- Song -->
<g id="node2" class="node"><title>Song</title>
<ellipse fill="none" stroke="black" cx="264" cy="-90" rx="28.6953" ry="18"/>
<text text-anchor="middle" x="264" y="-86.3" font-family="Times,serif" font-size="14.00">Song</text>
</g>
<!-- UserSong -->
<g id="node4" class="node"><title>UserSong</title>
<ellipse fill="none" stroke="black" cx="219" cy="-18" rx="45.4919" ry="18"/>
<text text-anchor="middle" x="219" y="-14.3" font-family="Times,serif" font-size="14.00">UserSong</text>
</g>
<!-- Song&#45;&gt;UserSong -->
<g id="edge1" class="edge"><title>Song&#45;&gt;UserSong</title>
<path fill="none" stroke="#ab0bcc" d="M249.356,-66.2205C244.878,-59.2551 239.926,-51.5513 235.343,-44.4219"/>
<ellipse fill="none" stroke="#ab0bcc" cx="251.626" cy="-69.7512" rx="4.00002" ry="4.00002"/>
<polygon fill="#ab0bcc" stroke="#ab0bcc" points="235.206,-44.2091 233.584,-33.3639 232.502,-40.0032 229.798,-35.7973 229.798,-35.7973 229.798,-35.7973 232.502,-40.0032 226.013,-38.2308 235.206,-44.2091 235.206,-44.2091"/>
</g>
<!-- User -->
<g id="node6" class="node"><title>User</title>
<ellipse fill="none" stroke="black" cx="310" cy="-18" rx="27.0966" ry="18"/>
<text text-anchor="middle" x="310" y="-14.3" font-family="Times,serif" font-size="14.00">User</text>
</g>
<!-- Song&#45;&gt;User -->
<g id="edge2" class="edge"><title>Song&#45;&gt;User</title>
<path fill="none" stroke="#5191d5" d="M280.091,-64.5131C284.543,-57.739 289.375,-50.3856 293.831,-43.6048"/>
<polygon fill="#5191d5" stroke="#5191d5" points="279.93,-64.7588 270.677,-70.6446 277.184,-68.9374 274.438,-73.1159 274.438,-73.1159 274.438,-73.1159 277.184,-68.9374 278.199,-75.5872 279.93,-64.7588 279.93,-64.7588"/>
<polygon fill="#5191d5" stroke="#5191d5" points="294.111,-43.1783 303.364,-37.2925 296.857,-38.9998 299.603,-34.8212 299.603,-34.8212 299.603,-34.8212 296.857,-38.9998 295.843,-32.3499 294.111,-43.1783 294.111,-43.1783"/>
</g>
<!-- ApplicationRecord -->
<g id="node3" class="node"><title>ApplicationRecord</title>
<ellipse fill="none" stroke="black" cx="392" cy="-183" rx="77.1866" ry="18"/>
<text text-anchor="middle" x="392" y="-179.3" font-family="Times,serif" font-size="14.00">ApplicationRecord</text>
</g>
<!-- Genre -->
<g id="node5" class="node"><title>Genre</title>
<ellipse fill="none" stroke="black" cx="264" cy="-183" rx="32.4942" ry="18"/>
<text text-anchor="middle" x="264" y="-179.3" font-family="Times,serif" font-size="14.00">Genre</text>
</g>
<!-- Genre&#45;&gt;Song -->
<g id="edge3" class="edge"><title>Genre&#45;&gt;Song</title>
<path fill="none" stroke="#c93396" d="M264,-156.729C264,-144.725 264,-130.362 264,-118.129"/>
<ellipse fill="none" stroke="#c93396" cx="264" cy="-160.884" rx="4" ry="4"/>
<polygon fill="#c93396" stroke="#c93396" points="264,-118.04 268.5,-108.04 264,-113.04 264,-108.04 264,-108.04 264,-108.04 264,-113.04 259.5,-108.04 264,-118.04 264,-118.04"/>
</g>
</g>
</svg>
