<?xml version="1.0" encoding="UTF-8" standalone="no"?>
<!DOCTYPE svg PUBLIC "-//W3C//DTD SVG 1.1//EN"
 "http://www.w3.org/Graphics/SVG/1.1/DTD/svg11.dtd">
<!-- Generated by graphviz version 2.38.0 (20140413.2041)
 -->
<!-- Title: models_diagram Pages: 1 -->
<svg width="656pt" height="416pt"
 viewBox="0.00 0.00 656.34 416.00" xmlns="http://www.w3.org/2000/svg" xmlns:xlink="http://www.w3.org/1999/xlink">
<g id="graph0" class="graph" transform="scale(1 1) rotate(0) translate(4 412)">
<title>models_diagram</title>
<polygon fill="none" stroke="none" points="-4,4 -4,-412 652.343,-412 652.343,4 -4,4"/>
<!-- _diagram_info -->
<g id="node1" class="node"><title>_diagram_info</title>
<text text-anchor="start" x="8" y="-386.6" font-family="Times,serif" font-size="13.00">Models diagram</text>
<text text-anchor="start" x="8" y="-372.6" font-family="Times,serif" font-size="13.00">Date: Nov 21 2016 &#45; 19:31</text>
<text text-anchor="start" x="8" y="-358.6" font-family="Times,serif" font-size="13.00">Migration version: 20161121222550</text>
<text text-anchor="start" x="8" y="-344.6" font-family="Times,serif" font-size="13.00">Generated by RailRoady 1.5.2</text>
<text text-anchor="start" x="8" y="-330.6" font-family="Times,serif" font-size="13.00">http://railroady.prestonlee.com</text>
</g>
<!-- Song -->
<g id="node2" class="node"><title>Song</title>
<path fill="none" stroke="black" d="M244,-158.5C244,-158.5 464,-158.5 464,-158.5 470,-158.5 476,-164.5 476,-170.5 476,-170.5 476,-267.5 476,-267.5 476,-273.5 470,-279.5 464,-279.5 464,-279.5 244,-279.5 244,-279.5 238,-279.5 232,-273.5 232,-267.5 232,-267.5 232,-170.5 232,-170.5 232,-164.5 238,-158.5 244,-158.5"/>
<text text-anchor="middle" x="354" y="-264.3" font-family="Times,serif" font-size="14.00">Song</text>
<polyline fill="none" stroke="black" points="232,-256.5 476,-256.5 "/>
<text text-anchor="start" x="240" y="-241.3" font-family="Times,serif" font-size="14.00">id :integer</text>
<text text-anchor="start" x="240" y="-226.3" font-family="Times,serif" font-size="14.00">name :character varying</text>
<text text-anchor="start" x="240" y="-211.3" font-family="Times,serif" font-size="14.00">duration :integer</text>
<text text-anchor="start" x="240" y="-196.3" font-family="Times,serif" font-size="14.00">genre_id :integer</text>
<text text-anchor="start" x="240" y="-181.3" font-family="Times,serif" font-size="14.00">created_at :timestamp without time zone</text>
<text text-anchor="start" x="240" y="-166.3" font-family="Times,serif" font-size="14.00">updated_at :timestamp without time zone</text>
</g>
<!-- UserSong -->
<g id="node4" class="node"><title>UserSong</title>
<path fill="none" stroke="black" d="M161,-0.5C161,-0.5 381,-0.5 381,-0.5 387,-0.5 393,-6.5 393,-12.5 393,-12.5 393,-109.5 393,-109.5 393,-115.5 387,-121.5 381,-121.5 381,-121.5 161,-121.5 161,-121.5 155,-121.5 149,-115.5 149,-109.5 149,-109.5 149,-12.5 149,-12.5 149,-6.5 155,-0.5 161,-0.5"/>
<text text-anchor="middle" x="271" y="-106.3" font-family="Times,serif" font-size="14.00">UserSong</text>
<polyline fill="none" stroke="black" points="149,-98.5 393,-98.5 "/>
<text text-anchor="start" x="157" y="-83.3" font-family="Times,serif" font-size="14.00">id :integer</text>
<text text-anchor="start" x="157" y="-68.3" font-family="Times,serif" font-size="14.00">position :integer</text>
<text text-anchor="start" x="157" y="-53.3" font-family="Times,serif" font-size="14.00">user_id :integer</text>
<text text-anchor="start" x="157" y="-38.3" font-family="Times,serif" font-size="14.00">song_id :integer</text>
<text text-anchor="start" x="157" y="-23.3" font-family="Times,serif" font-size="14.00">created_at :timestamp without time zone</text>
<text text-anchor="start" x="157" y="-8.3" font-family="Times,serif" font-size="14.00">updated_at :timestamp without time zone</text>
</g>
<!-- Song&#45;&gt;UserSong -->
<g id="edge1" class="edge"><title>Song&#45;&gt;UserSong</title>
<path fill="none" stroke="#8863a1" d="M318.241,-150.79C314.703,-144.141 311.108,-137.384 307.563,-130.72"/>
<ellipse fill="none" stroke="#8863a1" cx="320.269" cy="-154.601" rx="4.00002" ry="4.00002"/>
<polygon fill="#8863a1" stroke="#8863a1" points="307.464,-130.536 306.74,-119.594 305.116,-126.121 302.767,-121.707 302.767,-121.707 302.767,-121.707 305.116,-126.121 298.795,-123.821 307.464,-130.536 307.464,-130.536"/>
</g>
<!-- User -->
<g id="node6" class="node"><title>User</title>
<ellipse fill="none" stroke="black" cx="438" cy="-61" rx="27.0966" ry="18"/>
<text text-anchor="middle" x="438" y="-57.3" font-family="Times,serif" font-size="14.00">User</text>
</g>
<!-- Song&#45;&gt;User -->
<g id="edge2" class="edge"><title>Song&#45;&gt;User</title>
<path fill="none" stroke="#bf8498" d="M390.993,-149.299C402.814,-127.346 415.171,-104.396 424.248,-87.5396"/>
<polygon fill="#bf8498" stroke="#bf8498" points="390.977,-149.328 382.274,-155.999 388.607,-153.73 386.236,-158.132 386.236,-158.132 386.236,-158.132 388.607,-153.73 390.198,-160.266 390.977,-149.328 390.977,-149.328"/>
<polygon fill="#bf8498" stroke="#bf8498" points="424.443,-87.1771 433.146,-80.5058 426.814,-82.7747 429.184,-78.3724 429.184,-78.3724 429.184,-78.3724 426.814,-82.7747 425.222,-76.2389 424.443,-87.1771 424.443,-87.1771"/>
</g>
<!-- ApplicationRecord -->
<g id="node3" class="node"><title>ApplicationRecord</title>
<ellipse fill="none" stroke="black" cx="571" cy="-362" rx="77.1866" ry="18"/>
<text text-anchor="middle" x="571" y="-358.3" font-family="Times,serif" font-size="14.00">ApplicationRecord</text>
</g>
<!-- Genre -->
<g id="node5" class="node"><title>Genre</title>
<path fill="none" stroke="black" d="M244,-316.5C244,-316.5 464,-316.5 464,-316.5 470,-316.5 476,-322.5 476,-328.5 476,-328.5 476,-395.5 476,-395.5 476,-401.5 470,-407.5 464,-407.5 464,-407.5 244,-407.5 244,-407.5 238,-407.5 232,-401.5 232,-395.5 232,-395.5 232,-328.5 232,-328.5 232,-322.5 238,-316.5 244,-316.5"/>
<text text-anchor="middle" x="354" y="-392.3" font-family="Times,serif" font-size="14.00">Genre</text>
<polyline fill="none" stroke="black" points="232,-384.5 476,-384.5 "/>
<text text-anchor="start" x="240" y="-369.3" font-family="Times,serif" font-size="14.00">id :integer</text>
<text text-anchor="start" x="240" y="-354.3" font-family="Times,serif" font-size="14.00">name :character varying</text>
<text text-anchor="start" x="240" y="-339.3" font-family="Times,serif" font-size="14.00">created_at :timestamp without time zone</text>
<text text-anchor="start" x="240" y="-324.3" font-family="Times,serif" font-size="14.00">updated_at :timestamp without time zone</text>
</g>
<!-- Genre&#45;&gt;Song -->
<g id="edge3" class="edge"><title>Genre&#45;&gt;Song</title>
<path fill="none" stroke="#57d753" d="M354,-308.283C354,-302.279 354,-296.09 354,-289.907"/>
<ellipse fill="none" stroke="#57d753" cx="354" cy="-312.387" rx="4" ry="4"/>
<polygon fill="#57d753" stroke="#57d753" points="354,-289.541 358.5,-279.541 354,-284.541 354,-279.541 354,-279.541 354,-279.541 354,-284.541 349.5,-279.541 354,-289.541 354,-289.541"/>
</g>
</g>
</svg>
